<?xml version="1.0" encoding="utf-8"?>
<!-- Generator: Adobe Illustrator 26.0.2, SVG Export Plug-In . SVG Version: 6.00 Build 0)  -->
<svg version="1.1" id="Layer_1" xmlns="http://www.w3.org/2000/svg" xmlns:xlink="http://www.w3.org/1999/xlink" x="0px" y="0px"
	 viewBox="0 0 1360 80" style="enable-background:new 0 0 1360 80;" xml:space="preserve">
<style type="text/css">
	.st0{fill:#FFD255;}
	.st1{fill:#00A3FF;filter:url(#Adobe_OpacityMaskFilter);}
	.st2{opacity:0.66;mask:url(#mask0_610_316_00000114752106377282115320000001335136010246363070_);}
	.st3{fill-rule:evenodd;clip-rule:evenodd;fill:#FFFFFF;fill-opacity:0.7;}
	.st4{fill:none;stroke:url(#SVGID_1_);stroke-width:2.5438;stroke-linecap:round;stroke-opacity:0.3;}
	
		.st5{fill:none;stroke:url(#SVGID_00000098183955394879422190000004840805382588440961_);stroke-width:2.5438;stroke-linecap:round;stroke-opacity:0.3;}
	
		.st6{fill:none;stroke:url(#SVGID_00000031175297372087757860000011265833324338885537_);stroke-width:2.5438;stroke-linecap:round;stroke-opacity:0.3;}
	
		.st7{fill:none;stroke:url(#SVGID_00000150787300259700741240000000964487152060256642_);stroke-width:2.5438;stroke-linecap:round;stroke-opacity:0.3;}
	
		.st8{fill:none;stroke:url(#SVGID_00000046301610743625674090000005353113433540547207_);stroke-width:2.5438;stroke-linecap:round;stroke-opacity:0.3;}
	
		.st9{fill:none;stroke:url(#SVGID_00000075883443963935568780000010604616890315008155_);stroke-width:2.5438;stroke-linecap:round;stroke-opacity:0.3;}
	
		.st10{fill:none;stroke:url(#SVGID_00000052077418262941611910000002996522006538782382_);stroke-width:2.5438;stroke-linecap:round;stroke-opacity:0.3;}
	
		.st11{fill:none;stroke:url(#SVGID_00000116928274294392549070000004740722440137709443_);stroke-width:2.5438;stroke-linecap:round;stroke-opacity:0.3;}
	
		.st12{fill:none;stroke:url(#SVGID_00000168835042897644040650000001690732914121385618_);stroke-width:2.5438;stroke-linecap:round;stroke-opacity:0.3;}
	
		.st13{fill:none;stroke:url(#SVGID_00000128443180849206003420000008725263967171445914_);stroke-width:2.5438;stroke-linecap:round;stroke-opacity:0.3;}
	
		.st14{fill:none;stroke:url(#SVGID_00000128455942303222459740000003882249031266985866_);stroke-width:2.5438;stroke-linecap:round;stroke-opacity:0.3;}
</style>
<path class="st0" d="M12,0h1336c6.6,0,12,5.4,12,12v56c0,6.6-5.4,12-12,12H12C5.4,80,0,74.6,0,68V12C0,5.4,5.4,0,12,0z"/>
<defs>
	<filter id="Adobe_OpacityMaskFilter" filterUnits="userSpaceOnUse" x="1165" y="-42" width="218.4" height="152">
		<feColorMatrix  type="matrix" values="1 0 0 0 0  0 1 0 0 0  0 0 1 0 0  0 0 0 1 0"/>
	</filter>
</defs>
<mask maskUnits="userSpaceOnUse" x="1165" y="-42" width="218.4" height="152" id="mask0_610_316_00000114752106377282115320000001335136010246363070_">
	<path class="st1" d="M12,0h1336c6.6,0,12,5.4,12,12v56c0,6.6-5.4,12-12,12H12C5.4,80,0,74.6,0,68V12C0,5.4,5.4,0,12,0z"/>
</mask>
<g class="st2">
	<g>
		<path class="st3" d="M1243.2,0c3.4-23.8,23.8-42,48.5-42c16.1,0,30.4,7.8,39.3,19.7c3.9-1.2,8-1.9,12.2-1.9
			c22.1,0,40.1,17.9,40.1,40.1S1365.4,56,1343.3,56h-51.5H1244h-3.8v-0.3c-13.7-1.9-24.2-13.6-24.2-27.7
			C1216,12.8,1228.1,0.4,1243.2,0z"/>
	</g>
	<g>
		<path class="st3" d="M1192.2,54c3.4-23.8,23.8-42,48.5-42c16.1,0,30.4,7.8,39.3,19.7c3.9-1.2,8-1.9,12.2-1.9
			c22.1,0,40.1,17.9,40.1,40.1s-17.9,40.1-40.1,40.1h-51.5H1193h-3.8v-0.3c-13.7-1.9-24.2-13.6-24.2-27.7
			C1165,66.8,1177.1,54.4,1192.2,54z"/>
	</g>
</g>
<linearGradient id="SVGID_1_" gradientUnits="userSpaceOnUse" x1="1318.7787" y1="179.7006" x2="1318.7787" y2="163.2173" gradientTransform="matrix(0.1383 0.6848 2.2696 -0.4584 766.38 -753.0302)">
	<stop  offset="0" style="stop-color:#FFFFFF;stop-opacity:0"/>
	<stop  offset="0.8958" style="stop-color:#FFFFFF"/>
</linearGradient>
<path class="st4" d="M1356.8,71.4l-37.8,0.1"/>
<linearGradient id="SVGID_00000032615842966351055650000018426151103657873327_" gradientUnits="userSpaceOnUse" x1="1294.8489" y1="162.237" x2="1294.8489" y2="145.7536" gradientTransform="matrix(0.1383 0.6848 2.2696 -0.4584 766.38 -753.0302)">
	<stop  offset="0" style="stop-color:#FFFFFF;stop-opacity:0"/>
	<stop  offset="0.8958" style="stop-color:#FFFFFF"/>
</linearGradient>
<path style="fill:none;stroke:url(#SVGID_00000032615842966351055650000018426151103657873327_);stroke-width:2.5438;stroke-linecap:round;stroke-opacity:0.3;" d="
	M1313.9,63l-37.8,0.1"/>
<linearGradient id="SVGID_00000103225526035538063700000005680679058854791096_" gradientUnits="userSpaceOnUse" x1="1277.8826" y1="174.5962" x2="1277.8826" y2="158.1129" gradientTransform="matrix(0.1383 0.6848 2.2696 -0.4584 766.38 -753.0302)">
	<stop  offset="0" style="stop-color:#FFFFFF;stop-opacity:0"/>
	<stop  offset="0.8958" style="stop-color:#FFFFFF"/>
</linearGradient>
<path style="fill:none;stroke:url(#SVGID_00000103225526035538063700000005680679058854791096_);stroke-width:2.5438;stroke-linecap:round;stroke-opacity:0.3;" d="
	M1339.6,45.8l-37.8,0.1"/>
<linearGradient id="SVGID_00000082346406821911875160000010407517506560357308_" gradientUnits="userSpaceOnUse" x1="1248.9135" y1="169.0256" x2="1248.9135" y2="152.5422" gradientTransform="matrix(0.1383 0.6848 2.2696 -0.4584 766.38 -753.0302)">
	<stop  offset="0" style="stop-color:#FFFFFF;stop-opacity:0"/>
	<stop  offset="0.8958" style="stop-color:#FFFFFF"/>
</linearGradient>
<path style="fill:none;stroke:url(#SVGID_00000082346406821911875160000010407517506560357308_);stroke-width:2.5438;stroke-linecap:round;stroke-opacity:0.3;" d="
	M1322.9,28.5l-37.8,0.1"/>
<linearGradient id="SVGID_00000154419796200973501950000012097755735379522973_" gradientUnits="userSpaceOnUse" x1="1254.1022" y1="154.5436" x2="1254.1022" y2="138.0603" gradientTransform="matrix(0.1383 0.6848 2.2696 -0.4584 766.38 -753.0302)">
	<stop  offset="0" style="stop-color:#FFFFFF;stop-opacity:0"/>
	<stop  offset="0.8958" style="stop-color:#FFFFFF"/>
</linearGradient>
<path style="fill:none;stroke:url(#SVGID_00000154419796200973501950000012097755735379522973_);stroke-width:2.5438;stroke-linecap:round;stroke-opacity:0.3;" d="
	M1290.8,38.7l-37.8,0.1"/>
<linearGradient id="SVGID_00000182527345318866755540000002092888855851788201_" gradientUnits="userSpaceOnUse" x1="1238.2336" y1="181.6854" x2="1238.2336" y2="165.2021" gradientTransform="matrix(0.1383 0.6848 2.2696 -0.4584 766.38 -753.0302)">
	<stop  offset="0" style="stop-color:#FFFFFF;stop-opacity:0"/>
	<stop  offset="0.8958" style="stop-color:#FFFFFF"/>
</linearGradient>
<path style="fill:none;stroke:url(#SVGID_00000182527345318866755540000002092888855851788201_);stroke-width:2.5438;stroke-linecap:round;stroke-opacity:0.3;" d="
	M1350.2,15.4l-37.8,0.1"/>
<linearGradient id="SVGID_00000163755376793111799330000013764407683515957149_" gradientUnits="userSpaceOnUse" x1="1297.9991" y1="148.8174" x2="1297.9991" y2="132.334" gradientTransform="matrix(0.1383 0.6848 2.2696 -0.4584 766.38 -753.0302)">
	<stop  offset="0" style="stop-color:#FFFFFF;stop-opacity:0"/>
	<stop  offset="0.8958" style="stop-color:#FFFFFF"/>
</linearGradient>
<path style="fill:none;stroke:url(#SVGID_00000163755376793111799330000013764407683515957149_);stroke-width:2.5438;stroke-linecap:round;stroke-opacity:0.3;" d="
	M1283.9,71.4l-37.8,0.1"/>
<linearGradient id="SVGID_00000170964762354800537780000014950613719607540631_" gradientUnits="userSpaceOnUse" x1="1224.2292" y1="145.6056" x2="1224.2292" y2="129.1222" gradientTransform="matrix(0.1383 0.6848 2.2696 -0.4584 766.38 -753.0302)">
	<stop  offset="0" style="stop-color:#FFFFFF;stop-opacity:0"/>
	<stop  offset="0.8958" style="stop-color:#FFFFFF"/>
</linearGradient>
<path style="fill:none;stroke:url(#SVGID_00000170964762354800537780000014950613719607540631_);stroke-width:2.5438;stroke-linecap:round;stroke-opacity:0.3;" d="
	M1266.4,22.3l-37.8,0.1"/>
<linearGradient id="SVGID_00000088852158013469572300000008379989997818399414_" gradientUnits="userSpaceOnUse" x1="1215.089" y1="160.8393" x2="1215.089" y2="144.3559" gradientTransform="matrix(0.1383 0.6848 2.2696 -0.4584 766.38 -753.0302)">
	<stop  offset="0" style="stop-color:#FFFFFF;stop-opacity:0"/>
	<stop  offset="0.8958" style="stop-color:#FFFFFF"/>
</linearGradient>
<path style="fill:none;stroke:url(#SVGID_00000088852158013469572300000008379989997818399414_);stroke-width:2.5438;stroke-linecap:round;stroke-opacity:0.3;" d="
	M1299.7,9.1l-37.8,0.1"/>
<linearGradient id="SVGID_00000123421668248295797510000007434041114431923363_" gradientUnits="userSpaceOnUse" x1="1260.6984" y1="140.1751" x2="1260.6984" y2="123.6918" gradientTransform="matrix(0.1383 0.6848 2.2696 -0.4584 766.38 -753.0302)">
	<stop  offset="0" style="stop-color:#FFFFFF;stop-opacity:0"/>
	<stop  offset="0.8958" style="stop-color:#FFFFFF"/>
</linearGradient>
<path style="fill:none;stroke:url(#SVGID_00000123421668248295797510000007434041114431923363_);stroke-width:2.5438;stroke-linecap:round;stroke-opacity:0.3;" d="
	M1259.1,49.8l-37.8,0.1"/>
<linearGradient id="SVGID_00000166663415078219983440000002327322314268498861_" gradientUnits="userSpaceOnUse" x1="1274.7914" y1="130.0981" x2="1274.7914" y2="113.6148" gradientTransform="matrix(0.1383 0.6848 2.2696 -0.4584 766.38 -753.0302)">
	<stop  offset="0" style="stop-color:#FFFFFF;stop-opacity:0"/>
	<stop  offset="0.8958" style="stop-color:#FFFFFF"/>
</linearGradient>
<path style="fill:none;stroke:url(#SVGID_00000166663415078219983440000002327322314268498861_);stroke-width:2.5438;stroke-linecap:round;stroke-opacity:0.3;" d="
	M1238.2,64l-37.8,0.1"/>
</svg>
